<?xml version="1.0" standalone="no"?>
<!DOCTYPE svg PUBLIC "-//W3C//DTD SVG 20010904//EN"
 "http://www.w3.org/TR/2001/REC-SVG-20010904/DTD/svg10.dtd">
<svg version="1.0" xmlns="http://www.w3.org/2000/svg"
 width="360.000000pt" height="360.000000pt" viewBox="0 0 360.000000 360.000000"
 preserveAspectRatio="xMidYMid meet">
<metadata>
Created by potrace 1.14, written by Peter Selinger 2001-2017
</metadata>
<g transform="translate(0.000000,360.000000) scale(0.100000,-0.100000)"
fill="#000000" stroke="none">
<path d="M0 1800 l0 -1800 1800 0 1800 0 0 1800 0 1800 -1800 0 -1800 0 0
-1800z m1260 235 c0 -1210 -3 -1155 64 -1220 92 -92 229 -72 302 43 l29 47 5
1054 5 1054 118 53 c66 29 127 56 138 59 19 6 19 -15 19 -1100 0 -1210 -3
-1144 58 -1208 40 -43 78 -58 137 -58 60 0 97 16 136 58 58 62 56 27 63 818 3
402 6 876 6 1055 l0 326 123 51 c67 29 130 55 140 59 17 6 18 -43 15 -1132
l-3 -1139 -33 -77 c-49 -112 -129 -196 -239 -250 -75 -36 -96 -41 -174 -46
-134 -7 -262 33 -346 111 l-23 20 -40 -29 c-108 -76 -188 -104 -303 -104 -138
0 -239 41 -332 135 -64 63 -90 105 -121 195 -18 53 -19 99 -19 1129 l0 1073
130 58 c72 32 133 59 138 59 4 1 7 -492 7 -1094z"/>
</g>
</svg>
